# xmcd CD database file
#
# Track frame offsets:
#	150
#	19017
#	33617
#	56150
#	75457
#	92607
#	112157
#	128320
#	148162
#	164530
#	179367
#	194140
#
# Disc length: 2803 seconds
#
# Revision: 1
# Processed by: cddbd v1.5.2PL0 Copyright (c) Steve Scherf et al.
# Submitted via: CDex 1.70beta2
#
DISCID=a70af10c
DTITLE=King, Ben E - Supernatural (1975) - Supernatural (1975)
DYEAR=1996
DGENRE=Soul
TTITLE0=Supernatural Thing Pt 1 (P.Grant-G.Guthrie)
TTITLE1=Supernatural Thing Pt 2 (P.Grant-G.Guthrie)
TTITLE2=Your Lovin' Ain't Good Enough (P.Grant-G.Guthrie)
TTITLE3=Drop My Heart Off (S.dee-F.Knight)
TTITLE4=Extra-Extra (S.Dees)
TTITLE5=Do It In The Name Of Love (P.Grant-G.Guthrie)
TTITLE6=Happiness Is Where You Find It (S.Dees-B.Crutcher)
TTITLE7=Do You Wanna Do A Thing (J.Boyce-S.Harley)
TTITLE8=Imagination (BEK-BEK Jr.)
TTITLE9=What Do You Want Me To Do (L.Courtney)
TTITLE10=(bonus track) Supernatural Thing (Edit) (P.Grant-G.Guthrie)
TTITLE11=(bonus track) Do It In The Name Of Love (Edit) (P.Grant-G.Guthrie)
EXTD=YEAR: 1996
EXTT0=
EXTT1=
EXTT2=
EXTT3=
EXTT4=
EXTT5=
EXTT6=
EXTT7=
EXTT8=
EXTT9=
EXTT10=
EXTT11=
PLAYORDER=
